<svg id="visual" viewBox="0 0 900 150" width="900" height="150" xmlns="http://www.w3.org/2000/svg" xmlns:xlink="http://www.w3.org/1999/xlink" version="1.1"><rect x="0" y="0" width="900" height="150" fill="#46a344"></rect><path d="M0 98L21.5 96.2C43 94.3 86 90.7 128.8 90C171.7 89.3 214.3 91.7 257.2 90C300 88.3 343 82.7 385.8 81C428.7 79.3 471.3 81.7 514.2 85.3C557 89 600 94 642.8 95.2C685.7 96.3 728.3 93.7 771.2 94C814 94.3 857 97.7 878.5 99.3L900 101L900 0L878.5 0C857 0 814 0 771.2 0C728.3 0 685.7 0 642.8 0C600 0 557 0 514.2 0C471.3 0 428.7 0 385.8 0C343 0 300 0 257.2 0C214.3 0 171.7 0 128.8 0C86 0 43 0 21.5 0L0 0Z" fill="#3b9839"></path><path d="M0 68L21.5 70.5C43 73 86 78 128.8 74.5C171.7 71 214.3 59 257.2 54C300 49 343 51 385.8 52.7C428.7 54.3 471.3 55.7 514.2 59.2C557 62.7 600 68.3 642.8 69.5C685.7 70.7 728.3 67.3 771.2 63.7C814 60 857 56 878.5 54L900 52L900 0L878.5 0C857 0 814 0 771.2 0C728.3 0 685.7 0 642.8 0C600 0 557 0 514.2 0C471.3 0 428.7 0 385.8 0C343 0 300 0 257.2 0C214.3 0 171.7 0 128.8 0C86 0 43 0 21.5 0L0 0Z" fill="#50a74e"></path><path d="M0 36L21.5 35.8C43 35.7 86 35.3 128.8 35.7C171.7 36 214.3 37 257.2 40.3C300 43.7 343 49.3 385.8 49.3C428.7 49.3 471.3 43.7 514.2 44C557 44.3 600 50.7 642.8 49.8C685.7 49 728.3 41 771.2 40.5C814 40 857 47 878.5 50.5L900 54L900 0L878.5 0C857 0 814 0 771.2 0C728.3 0 685.7 0 642.8 0C600 0 557 0 514.2 0C471.3 0 428.7 0 385.8 0C343 0 300 0 257.2 0C214.3 0 171.7 0 128.8 0C86 0 43 0 21.5 0L0 0Z" fill="#64b762"></path><path d="M0 34L21.5 33.5C43 33 86 32 128.8 30.8C171.7 29.7 214.3 28.3 257.2 26.5C300 24.7 343 22.3 385.8 24.2C428.7 26 471.3 32 514.2 31.7C557 31.3 600 24.7 642.8 23C685.7 21.3 728.3 24.7 771.2 26.8C814 29 857 30 878.5 30.5L900 31L900 0L878.5 0C857 0 814 0 771.2 0C728.3 0 685.7 0 642.8 0C600 0 557 0 514.2 0C471.3 0 428.7 0 385.8 0C343 0 300 0 257.2 0C214.3 0 171.7 0 128.8 0C86 0 43 0 21.5 0L0 0Z" fill="#78c776"></path></svg>